<?xml version="1.0" encoding="UTF-8" standalone="no"?>
<svg viewBox="0 0 50 50"
 xmlns="http://www.w3.org/2000/svg" xmlns:xlink="http://www.w3.org/1999/xlink" version="1.2" baseProfile="tiny">
<title>Qt SVG Document</title>
<desc>Generated with Qt</desc>
<defs>
</defs>
<g fill="none" stroke="black" stroke-width="1" fill-rule="evenodd" stroke-linecap="square" stroke-linejoin="bevel" >

<g fill="#000000" fill-opacity="1" stroke="none" transform="matrix(2.27273,0,0,2.27273,-52.2727,0)"
font-family="Noto Sans" font-size="10" font-weight="400" font-style="normal" 
opacity="0.001" >
<rect x="23" y="0" width="22" height="22"/>
</g>

<g fill="#ffffff" fill-opacity="1" stroke="none" transform="matrix(2.27273,0,0,2.27273,-52.2727,0)"
font-family="Noto Sans" font-size="10" font-weight="400" font-style="normal" 
opacity="0.08" >
<circle cx="34" cy="11" r="11"/>
</g>

<g fill="#dfdfdf" fill-opacity="1" stroke="none" transform="matrix(2.27273,0,0,2.27273,-52.2727,0)"
font-family="Noto Sans" font-size="10" font-weight="400" font-style="normal" 
>
<path vector-effect="none" fill-rule="nonzero" d="M30.3362,7.33355 L31.2525,7.33355 C31.262,7.33344 31.2716,7.33313 31.2812,7.33355 C31.5148,7.34381 31.7484,7.45141 31.9111,7.62 L34.0014,9.71108 L36.1204,7.62 C36.3638,7.40871 36.5297,7.33996 36.7504,7.33355 L37.6667,7.33355 L37.6667,8.25019 C37.6667,8.51278 37.6352,8.75494 37.4376,8.93767 L35.3473,11.0288 L37.409,13.0912 C37.5814,13.2637 37.6667,13.5068 37.6667,13.75 L37.6667,14.6667 L36.7504,14.6667 C36.5073,14.6667 36.2642,14.5813 36.0918,14.4089 L34.0014,12.3178 L31.9111,14.4089 C31.7387,14.5814 31.4956,14.6667 31.2525,14.6667 L30.3362,14.6667 L30.3362,13.75 C30.3362,13.5069 30.4215,13.2637 30.5939,13.0912 L32.6843,11.0288 L30.5939,8.93767 C30.4008,8.75926 30.3161,8.50753 30.3362,8.25019 L30.3362,7.33355"/>
</g>

<g fill="none" stroke="#000000" stroke-opacity="1" stroke-width="1" stroke-linecap="square" stroke-linejoin="bevel" transform="matrix(1,0,0,1,0,0)"
font-family="Noto Sans" font-size="10" font-weight="400" font-style="normal" 
>
</g>
</g>
</svg>
