<?xml version="1.0" encoding="UTF-8" standalone="no"?>
<svg viewBox="0 0 50 50"
 xmlns="http://www.w3.org/2000/svg" xmlns:xlink="http://www.w3.org/1999/xlink" version="1.2" baseProfile="tiny">
<title>Qt SVG Document</title>
<desc>Generated with Qt</desc>
<defs>
</defs>
<g fill="none" stroke="black" stroke-width="1" fill-rule="evenodd" stroke-linecap="square" stroke-linejoin="bevel" >

<g fill="#000000" fill-opacity="1" stroke="none" transform="matrix(2.27273,0,0,2.27273,0,0)"
font-family="Noto Sans" font-size="10" font-weight="400" font-style="normal" 
opacity="0.001" >
<rect x="0" y="0" width="22" height="22"/>
</g>

<g fill="#dfdfdf" fill-opacity="1" stroke="none" transform="matrix(2.27273,0,0,2.27273,0,0)"
font-family="Noto Sans" font-size="10" font-weight="400" font-style="normal" 
>
<path vector-effect="none" fill-rule="nonzero" d="M7.33622,7.33355 L8.25252,7.33355 C8.26202,7.33344 8.27157,7.33313 8.28116,7.33355 C8.51477,7.34381 8.74835,7.45141 8.91112,7.62 L11.0014,9.71108 L13.1204,7.62 C13.3638,7.40871 13.5297,7.33996 13.7504,7.33355 L14.6667,7.33355 L14.6667,8.25019 C14.6667,8.51278 14.6352,8.75494 14.4376,8.93767 L12.3473,11.0288 L14.409,13.0912 C14.5814,13.2637 14.6667,13.5068 14.6667,13.75 L14.6667,14.6667 L13.7504,14.6667 C13.5073,14.6667 13.2642,14.5813 13.0918,14.4089 L11.0014,12.3178 L8.91112,14.4089 C8.7387,14.5814 8.49561,14.6667 8.25252,14.6667 L7.33622,14.6667 L7.33622,13.75 C7.33621,13.5069 7.42149,13.2637 7.59393,13.0912 L9.68425,11.0288 L7.59393,8.93767 C7.40082,8.75926 7.31614,8.50753 7.33622,8.25019 L7.33622,7.33355"/>
</g>

<g fill="none" stroke="#000000" stroke-opacity="1" stroke-width="1" stroke-linecap="square" stroke-linejoin="bevel" transform="matrix(1,0,0,1,0,0)"
font-family="Noto Sans" font-size="10" font-weight="400" font-style="normal" 
>
</g>
</g>
</svg>
