<?xml version="1.0" encoding="UTF-8" standalone="no"?>
<svg
   xmlns:dc="http://purl.org/dc/elements/1.1/"
   xmlns:cc="http://creativecommons.org/ns#"
   xmlns:rdf="http://www.w3.org/1999/02/22-rdf-syntax-ns#"
   xmlns:svg="http://www.w3.org/2000/svg"
   xmlns="http://www.w3.org/2000/svg"
   xmlns:sodipodi="http://sodipodi.sourceforge.net/DTD/sodipodi-0.dtd"
   xmlns:inkscape="http://www.inkscape.org/namespaces/inkscape"
   width="48px"
   height="49px"
   viewBox="0 0 48 49"
   version="1.1"
   id="svg4"
   sodipodi:docname="busy04.svg"
   inkscape:version="0.92.4 5da689c313, 2019-01-14">
  <metadata
     id="metadata10">
    <rdf:RDF>
      <cc:Work
         rdf:about="">
        <dc:format>image/svg+xml</dc:format>
        <dc:type
           rdf:resource="http://purl.org/dc/dcmitype/StillImage" />
      </cc:Work>
    </rdf:RDF>
  </metadata>
  <defs
     id="defs8" />
  <sodipodi:namedview
     pagecolor="#ffffff"
     bordercolor="#666666"
     borderopacity="1"
     objecttolerance="10"
     gridtolerance="10"
     guidetolerance="10"
     inkscape:pageopacity="0"
     inkscape:pageshadow="2"
     inkscape:window-width="1561"
     inkscape:window-height="973"
     id="namedview6"
     showgrid="false"
     inkscape:zoom="4.8163265"
     inkscape:cx="24"
     inkscape:cy="24.5"
     inkscape:window-x="94"
     inkscape:window-y="24"
     inkscape:window-maximized="0"
     inkscape:current-layer="svg4" />
  <path
     fill="#1793d1"
     d="M47.8498032,21.4151418 C47.7738986,20.7378786 46.987169,20.2289453 46.3068846,20.2289453 C44.1074353,20.2289453 42.1557031,18.93268 41.3371829,16.9279594 C40.5009813,14.874658 41.0401724,12.4800361 42.679356,10.970804 C43.1953291,10.4973651 43.2580174,9.70483449 42.8252715,9.15431166 C41.6995607,7.71947454 40.4200759,6.42338854 39.0230728,5.30011401 C38.4760234,4.85948062 37.6733986,4.92078925 37.1990391,5.44800764 C35.7684593,7.03826751 33.1987738,7.62930424 31.2131078,6.79769388 C29.1467149,5.92521109 27.843655,3.82350815 27.9711748,1.56745803 C28.0131456,0.858823462 27.4971725,0.242689633 26.793313,0.160406995 C25.0005341,-0.0477196784 23.1920384,-0.0541732187 21.3939015,0.146065794 C20.698079,0.223149747 20.1821059,0.82476311 20.2055024,1.52443443 C20.2837288,3.75825568 18.9649522,5.8232093 16.9190982,6.66432071 C14.9571858,7.4686828 12.4055389,6.88266549 10.9778167,5.30656755 C10.5059576,4.78741609 9.71637049,4.72359775 9.16664211,5.1536545 C7.72820403,6.28643008 6.41996479,7.58359167 5.28389518,9.00659729 C4.84079053,9.5598091 4.90597924,10.3616615 5.42713175,10.8376101 C7.09757021,12.3559847 7.63693984,14.7714014 6.76912625,16.8483658 C5.94060449,18.828527 3.8920715,20.1047146 1.54688521,20.1047146 C0.78587396,20.0801553 0.243825343,20.5928532 0.160598109,21.2873259 C-0.050506163,23.0971854 -0.053006552,24.9412845 0.150239354,26.7658437 C0.225608223,27.4459752 1.03627006,27.9504269 1.72405563,27.9504269 C3.81402364,27.8968267 5.82058582,29.1956016 6.66232392,31.251592 C7.50138303,33.3048934 6.9620134,35.6980812 5.32032942,37.2085682 C4.80685668,37.6820071 4.74166797,38.4732828 5.17441386,39.0238056 C6.28958736,40.4495002 7.56925073,41.7468411 8.97125457,42.8794374 C9.52116155,43.3241939 10.321286,43.2614511 10.7979673,42.7342327 C12.233905,41.140029 14.8034119,40.5500679 16.7812196,41.3832917 C18.8527919,42.2530855 20.1558518,44.3546091 20.028332,46.6119141 C19.9867183,47.3209072 20.5051919,47.9381166 21.2061938,48.0191444 C22.1233007,48.1265242 23.0459443,48.1801244 23.9710882,48.1801244 C24.8492606,48.1801244 25.7276115,48.1317228 26.6057838,48.0336649 C27.301785,47.9565809 27.8174009,47.3549676 27.7940044,46.6540414 C27.7134562,44.421475 29.0345546,42.3565214 31.0777296,41.5168441 C33.0528583,40.7071041 35.5937893,41.2997542 37.02169,42.8742387 C37.4962281,43.3923146 38.2802787,43.4548781 38.8330433,43.0262554 C40.2688024,41.8961688 41.5743626,40.6000828 42.7157902,39.1731334 C43.1587162,38.6211764 43.0962065,37.8180692 42.572375,37.3422999 C40.9019366,35.8239253 40.359888,33.40815 41.2277015,31.3326198 C42.0435428,29.3788105 44.0159925,28.0669491 46.1375726,28.0669491 L46.4344044,28.0746575 C47.1225472,28.1307675 47.7556814,27.598709 47.8390873,26.8936597 C48.0505487,25.0821868 48.0530491,23.239701 47.8498032,21.4151418 Z M24.0380629,32.1764202 C19.6234475,32.1764202 16.0325317,28.5721179 16.0325317,24.1410455 C16.0325317,19.7101523 19.6234475,16.1056708 24.0380629,16.1056708 C28.4524997,16.1056708 32.0434155,19.7101523 32.0434155,24.1410455 C32.0434155,28.5721179 28.4524997,32.1764202 24.0380629,32.1764202 Z"
     id="path2"
     style="fill:#1793d1;fill-opacity:1" />
</svg>
