<?xml version="1.0" encoding="UTF-8" standalone="no"?>
<svg
   xmlns:dc="http://purl.org/dc/elements/1.1/"
   xmlns:cc="http://creativecommons.org/ns#"
   xmlns:rdf="http://www.w3.org/1999/02/22-rdf-syntax-ns#"
   xmlns:svg="http://www.w3.org/2000/svg"
   xmlns="http://www.w3.org/2000/svg"
   xmlns:sodipodi="http://sodipodi.sourceforge.net/DTD/sodipodi-0.dtd"
   xmlns:inkscape="http://www.inkscape.org/namespaces/inkscape"
   width="48px"
   height="48px"
   viewBox="0 0 48 48"
   version="1.1"
   id="svg6"
   sodipodi:docname="busy03.svg"
   inkscape:version="0.92.4 5da689c313, 2019-01-14">
  <metadata
     id="metadata12">
    <rdf:RDF>
      <cc:Work
         rdf:about="">
        <dc:format>image/svg+xml</dc:format>
        <dc:type
           rdf:resource="http://purl.org/dc/dcmitype/StillImage" />
      </cc:Work>
    </rdf:RDF>
  </metadata>
  <defs
     id="defs10" />
  <sodipodi:namedview
     pagecolor="#ffffff"
     bordercolor="#666666"
     borderopacity="1"
     objecttolerance="10"
     gridtolerance="10"
     guidetolerance="10"
     inkscape:pageopacity="0"
     inkscape:pageshadow="2"
     inkscape:window-width="1449"
     inkscape:window-height="906"
     id="namedview8"
     showgrid="false"
     inkscape:zoom="4.9166667"
     inkscape:cx="-9.1525424"
     inkscape:cy="24"
     inkscape:window-x="138"
     inkscape:window-y="52"
     inkscape:window-maximized="0"
     inkscape:current-layer="svg6" />
  <circle
     fill="#1793d1"
     cx="6"
     cy="37"
     r="2.5"
     id="circle2"
     style="fill:#1793d1;fill-opacity:1" />
  <path
     d="M24,0.5 C10.9,0.5 0.2,11 0.2,24 C0.2,28 1.2,31.8 3,35.1 C3.6,34.2 4.5,33.6 5.6,33.5 C4.1,30.6 3.2,27.4 3.2,24 C3.2,12.7 12.5,3.5 24,3.5 C35.5,3.5 44.8,12.7 44.8,24 C44.8,35.3 35.5,44.5 24,44.5 C18.2,44.5 13,42.1 9.2,38.4 C8.8,39.4 8,40.1 6.9,40.4 C11.2,44.8 17.3,47.6 23.9,47.6 C37,47.6 47.7,37.1 47.7,24.1 C47.7,11.1 37.1,0.5 24,0.5 Z"
     fill="#3A3A3A"
     id="path4" />
</svg>
